<?xml version="1.0" encoding="UTF-8"?>
<svg version="1.1" xmlns="http://www.w3.org/2000/svg" width="512" height="512">
<path d="M0 0 C0.80926437 -0.00570007 1.61852875 -0.01140015 2.45231628 -0.01727295 C4.16082477 -0.02666774 5.86935093 -0.03323479 7.57788086 -0.03710938 C10.12323078 -0.04670632 12.66773324 -0.07773664 15.21289062 -0.109375 C30.5352716 -0.20909527 45.45227607 1.68740381 60.23046875 5.828125 C61.13700195 6.08045898 62.04353516 6.33279297 62.97753906 6.59277344 C89.60919209 14.33999592 114.03541697 28.31504802 134.2421875 47.265625 C136.38302853 49.27583506 136.38302853 49.27583506 138.92578125 51.234375 C142.54975301 54.17084086 145.35496486 57.64805327 148.35546875 61.203125 C149.12117188 62.08097656 149.886875 62.95882812 150.67578125 63.86328125 C178.46044158 96.22065214 193.78318547 137.23133079 193.67114258 179.87817383 C193.66799429 182.37040523 193.69150026 184.8614307 193.71679688 187.35351562 C193.77742198 202.55357746 191.83733173 217.42077192 187.73046875 232.078125 C187.35196777 233.4379248 187.35196777 233.4379248 186.96582031 234.82519531 C179.19386541 261.54186789 165.16866123 285.84664687 146.23828125 306.16796875 C144.67085437 307.86222063 143.22057668 309.58011561 141.79296875 311.390625 C138.6035084 315.07077156 135.09575816 318.09393706 131.35546875 321.203125 C130.85821289 321.62867676 130.36095703 322.05422852 129.84863281 322.49267578 C100.37364286 347.66301967 60.90833275 365.18478245 21.7109375 365.40625 C20.90167313 365.41195007 20.09240875 365.41765015 19.25862122 365.42352295 C17.55011273 365.43291774 15.84158657 365.43948479 14.13305664 365.44335938 C11.58770672 365.45295632 9.04320426 365.48398664 6.49804688 365.515625 C-8.77933209 365.6153283 -23.67879113 363.86254094 -38.33203125 359.390625 C-39.20520996 359.13055664 -40.07838867 358.87048828 -40.97802734 358.60253906 C-43.54138 357.82542465 -46.09447636 357.02273058 -48.64453125 356.203125 C-49.36237793 355.97254395 -50.08022461 355.74196289 -50.81982422 355.50439453 C-79.4784712 346.05671512 -107.32992945 327.43006619 -126.64453125 304.203125 C-127.78341797 302.89601563 -127.78341797 302.89601563 -128.9453125 301.5625 C-156.75011588 269.21725439 -172.07224538 228.17393324 -171.96020508 185.52807617 C-171.95705679 183.03584477 -171.98056276 180.5448193 -172.00585938 178.05273438 C-172.06648448 162.85267254 -170.12639423 147.98547808 -166.01953125 133.328125 C-165.76719727 132.4215918 -165.51486328 131.51505859 -165.25488281 130.58105469 C-157.48292791 103.86438211 -143.45772373 79.55960313 -124.52734375 59.23828125 C-122.95991687 57.54402937 -121.50963918 55.82613439 -120.08203125 54.015625 C-116.8925709 50.33547844 -113.38482066 47.31231294 -109.64453125 44.203125 C-109.14727539 43.77757324 -108.65001953 43.35202148 -108.13769531 42.91357422 C-78.66270536 17.74323033 -39.19739525 0.22146755 0 0 Z " fill="#B5B5B5" transform="translate(245.64453125,73.796875)"/>
<path d="M0 0 C9.57 0 19.14 0 29 0 C29 59.4 29 118.8 29 180 C19.43 180 9.86 180 0 180 C0 120.6 0 61.2 0 0 Z " fill="#2C2C2C" transform="translate(281,167)"/>
<path d="M0 0 C9.57 0 19.14 0 29 0 C29 59.4 29 118.8 29 180 C19.43 180 9.86 180 0 180 C0 120.6 0 61.2 0 0 Z " fill="#2C2C2C" transform="translate(203,167)"/>
</svg>
