<?xml version="1.0" encoding="UTF-8"?>
<svg version="1.1" xmlns="http://www.w3.org/2000/svg" width="512" height="512">
<path d="M0 0 C0.80926437 -0.00570007 1.61852875 -0.01140015 2.45231628 -0.01727295 C4.16082477 -0.02666774 5.86935093 -0.03323479 7.57788086 -0.03710938 C10.12323078 -0.04670632 12.66773324 -0.07773664 15.21289062 -0.109375 C30.5352716 -0.20909527 45.45227607 1.68740381 60.23046875 5.828125 C61.13700195 6.08045898 62.04353516 6.33279297 62.97753906 6.59277344 C89.60919209 14.33999592 114.03541697 28.31504802 134.2421875 47.265625 C136.38302853 49.27583506 136.38302853 49.27583506 138.92578125 51.234375 C142.54975301 54.17084086 145.35496486 57.64805327 148.35546875 61.203125 C149.12117188 62.08097656 149.886875 62.95882812 150.67578125 63.86328125 C178.46044158 96.22065214 193.78318547 137.23133079 193.67114258 179.87817383 C193.66799429 182.37040523 193.69150026 184.8614307 193.71679688 187.35351562 C193.77742198 202.55357746 191.83733173 217.42077192 187.73046875 232.078125 C187.35196777 233.4379248 187.35196777 233.4379248 186.96582031 234.82519531 C179.19386541 261.54186789 165.16866123 285.84664687 146.23828125 306.16796875 C144.67085437 307.86222063 143.22057668 309.58011561 141.79296875 311.390625 C138.6035084 315.07077156 135.09575816 318.09393706 131.35546875 321.203125 C130.85821289 321.62867676 130.36095703 322.05422852 129.84863281 322.49267578 C100.37364286 347.66301967 60.90833275 365.18478245 21.7109375 365.40625 C20.90167313 365.41195007 20.09240875 365.41765015 19.25862122 365.42352295 C17.55011273 365.43291774 15.84158657 365.43948479 14.13305664 365.44335938 C11.58770672 365.45295632 9.04320426 365.48398664 6.49804688 365.515625 C-8.77933209 365.6153283 -23.67879113 363.86254094 -38.33203125 359.390625 C-39.20520996 359.13055664 -40.07838867 358.87048828 -40.97802734 358.60253906 C-43.54138 357.82542465 -46.09447636 357.02273058 -48.64453125 356.203125 C-49.36237793 355.97254395 -50.08022461 355.74196289 -50.81982422 355.50439453 C-79.4784712 346.05671512 -107.32992945 327.43006619 -126.64453125 304.203125 C-127.78341797 302.89601563 -127.78341797 302.89601563 -128.9453125 301.5625 C-156.75011588 269.21725439 -172.07224538 228.17393324 -171.96020508 185.52807617 C-171.95705679 183.03584477 -171.98056276 180.5448193 -172.00585938 178.05273438 C-172.06648448 162.85267254 -170.12639423 147.98547808 -166.01953125 133.328125 C-165.76719727 132.4215918 -165.51486328 131.51505859 -165.25488281 130.58105469 C-157.48292791 103.86438211 -143.45772373 79.55960313 -124.52734375 59.23828125 C-122.95991687 57.54402937 -121.50963918 55.82613439 -120.08203125 54.015625 C-116.8925709 50.33547844 -113.38482066 47.31231294 -109.64453125 44.203125 C-109.14727539 43.77757324 -108.65001953 43.35202148 -108.13769531 42.91357422 C-78.66270536 17.74323033 -39.19739525 0.22146755 0 0 Z " fill="#B4B4B4" transform="translate(245.64453125,73.796875)"/>
<path d="M0 0 C5.29708519 1.03698819 9.74851622 4.01443904 14.3359375 6.73046875 C16.39538888 7.92264312 18.4553008 9.11402218 20.515625 10.3046875 C21.57749023 10.92263184 22.63935547 11.54057617 23.73339844 12.17724609 C28.9441432 15.18938765 34.20341943 18.11349841 39.4609375 21.04296875 C48.42114065 26.05201447 57.36376579 31.0912641 66.296875 36.1484375 C73.3404031 40.13333765 80.39806395 44.09247396 87.4609375 48.04296875 C90.58349976 49.79136971 93.70586263 51.54012606 96.828125 53.2890625 C98.93696873 54.46969945 101.04635428 55.64936908 103.15625 56.828125 C106.25978938 58.56290438 109.36061992 60.30243958 112.4609375 62.04296875 C113.38583984 62.55859375 114.31074219 63.07421875 115.26367188 63.60546875 C121.01010315 66.83862569 126.53042281 70.30327365 131.9609375 74.04296875 C132.03125 77.19140625 132.03125 77.19140625 130.9609375 81.04296875 C128.22978631 83.46942439 125.07386662 85.00863101 121.8359375 86.66796875 C119.90081298 87.71442098 117.96592513 88.76131093 116.03125 89.80859375 C115.02610352 90.34162109 114.02095703 90.87464844 112.98535156 91.42382812 C108.17599059 93.99855221 103.44912088 96.71524263 98.7109375 99.41796875 C89.58889914 104.57726857 80.44449277 109.69650059 71.29785156 114.81201172 C63.40185971 119.2300946 55.52237218 123.67671217 47.64916992 128.13525391 C39.36162364 132.82507799 31.05272081 137.47636295 22.734375 142.11132812 C21.27837891 142.9244043 21.27837891 142.9244043 19.79296875 143.75390625 C18.83986816 144.28467773 17.88676758 144.81544922 16.90478516 145.36230469 C14.82880337 146.54749781 12.77268334 147.76781636 10.73193359 149.01269531 C9.14952881 149.9751416 9.14952881 149.9751416 7.53515625 150.95703125 C6.111427 151.84189209 6.111427 151.84189209 4.65893555 152.74462891 C1.74471818 154.14701855 0.14359112 154.56051121 -3.0390625 154.04296875 C-4.66144753 152.89164734 -4.66144753 152.89164734 -6.0390625 151.04296875 C-6.41658592 148.37083435 -6.41658592 148.37083435 -6.42001343 145.08374023 C-6.4284729 143.83865692 -6.43693237 142.59357361 -6.44564819 141.3107605 C-6.43981511 139.92852653 -6.43367059 138.54629385 -6.42724609 137.1640625 C-6.43131057 135.71037399 -6.43665175 134.25668858 -6.44317627 132.80300903 C-6.45687059 128.85262119 -6.45154259 124.90246799 -6.44203901 120.95207596 C-6.43445333 116.82147836 -6.44148498 112.6909011 -6.44619751 108.56030273 C-6.45165825 101.62317287 -6.44445512 94.68613877 -6.43017578 87.74902344 C-6.41384862 79.7242805 -6.4191369 71.6997662 -6.435655 63.6750288 C-6.44926081 56.7900328 -6.45119397 49.9051057 -6.44333899 43.02010059 C-6.43865748 38.90584883 -6.43805069 34.79170461 -6.44794846 30.67745972 C-6.45660275 26.80980581 -6.45062465 22.94244722 -6.43326569 19.07482529 C-6.42929257 17.65381232 -6.43044898 16.23277457 -6.43705368 14.81177139 C-6.44522586 12.8752556 -6.43317052 10.93868561 -6.42001343 9.00219727 C-6.41888235 7.91745621 -6.41775127 6.83271515 -6.41658592 5.71510315 C-6.0390625 3.04296875 -6.0390625 3.04296875 -4.70519447 1.17320251 C-3.0390625 0.04296875 -3.0390625 0.04296875 0 0 Z " fill="#4D4D4D" transform="translate(209.0390625,178.95703125)"/>
</svg>
